<svg width="740" height="740" viewBox="0 0 740 740" fill="none" xmlns="http://www.w3.org/2000/svg">
<path d="M154.327 268.834L137.243 223.582L24.3301 266.209L66.5906 379.259L111.899 362.322L98.4779 326.418L171.616 359.61C160.107 397.32 160.466 438.958 175.372 478.635C210.622 572.468 314.289 620.989 408.504 588.889L391.48 543.575C322.25 566.327 246.522 530.485 220.652 461.625C194.788 392.776 228.185 315.937 295.268 287.468L278.244 242.153C241.106 257.435 211.457 283.613 191.608 315.566L118.466 282.371L154.327 268.834Z" fill="#0EA1EF" style="mix-blend-mode:lighten"/>
<path d="M300.678 285.295C371.349 258.745 450.459 294.648 477.009 365.319C503.562 436.002 467.655 515.101 396.984 541.65C395.161 542.335 393.326 542.986 391.481 543.576L408.504 588.89C410.337 588.266 412.172 587.616 413.995 586.931C501.966 553.882 550.119 460.681 529.318 371.507L572.506 355.283L588.057 396.679L633.338 379.669L617.786 338.272L658.974 322.799L641.963 277.519L600.776 292.992L585.224 251.596L539.944 268.607L555.495 310.002L512.309 326.226C469.255 245.419 371.64 206.965 283.668 240.014C281.845 240.698 280.036 241.417 278.246 242.154L295.269 287.469C297.045 286.698 298.855 285.979 300.678 285.295Z" fill="#DF33ED" fill-opacity="0.83"/>
</svg>
