<svg width="1080" height="2400" viewBox="0 0 1080 2400" fill="none" xmlns="http://www.w3.org/2000/svg">
<g clip-path="url(#clip0_237_191)">
<g filter="url(#filter0_d_237_191)">
<rect width="1080" height="2400" rx="50" fill="black"/>
<g clip-path="url(#clip1_237_191)" filter="url(#filter1_if_237_191)">
<path d="M140.889 206.663V156.98H129.404V144.248H156.738V206.663H140.889Z" fill="#FF0082"/>
<path d="M216.301 160.363C216.301 165.794 213.363 170.602 208.466 173.274C215.321 176.122 219.595 182.088 219.595 189.033C219.595 200.251 209.623 207.374 194.042 207.374C178.461 207.374 168.489 200.34 168.489 189.301C168.489 182.177 173.119 176.122 180.33 173.274C175.077 170.335 171.694 165.35 171.694 159.919C171.694 149.946 180.42 143.625 193.953 143.625C207.664 143.625 216.301 150.124 216.301 160.363ZM183.446 187.698C183.446 192.952 187.186 195.89 194.042 195.89C200.898 195.89 204.726 193.041 204.726 187.698C204.726 182.535 200.898 179.595 194.042 179.595C187.186 179.595 183.446 182.534 183.446 187.698ZM185.05 161.254C185.05 165.707 188.255 168.198 194.042 168.198C199.829 168.198 203.035 165.706 203.035 161.254C203.035 156.625 199.829 154.043 194.042 154.043C188.254 154.043 185.05 156.625 185.05 161.254Z" fill="#FF0082"/>
<path d="M245.967 151.294C248.602 159.071 249.939 167.205 249.939 175.5C249.939 217.097 216.097 250.939 174.5 250.939C132.902 250.939 99.0601 217.097 99.0601 175.5C99.0601 133.902 132.902 100.062 174.499 100.062C182.796 100.062 190.93 101.397 198.705 104.033V87.2453C190.851 85.0923 182.74 84 174.5 84C124.047 84 83 125.047 83 175.5C83 225.954 124.047 267.001 174.5 267.001C224.953 267.001 265.999 225.954 265.999 175.5C265.999 167.261 264.907 159.149 262.754 151.294H245.967V151.294Z" fill="#FF0082"/>
<path d="M241.401 108.546V91.0015H228.785V108.546H211.346V121.161H228.785V138.705H241.401V121.161H258.945V108.546H241.401Z" fill="#FF0082"/>
</g>
</g>
</g>
<defs>
<filter id="filter0_d_237_191" x="-21" y="-16" width="1152" height="2472" filterUnits="userSpaceOnUse" color-interpolation-filters="sRGB">
<feFlood flood-opacity="0" result="BackgroundImageFix"/>
<feColorMatrix in="SourceAlpha" type="matrix" values="0 0 0 0 0 0 0 0 0 0 0 0 0 0 0 0 0 0 127 0" result="hardAlpha"/>
<feMorphology radius="4" operator="dilate" in="SourceAlpha" result="effect1_dropShadow_237_191"/>
<feOffset dx="15" dy="20"/>
<feGaussianBlur stdDeviation="16"/>
<feColorMatrix type="matrix" values="0 0 0 0 0 0 0 0 0 0 0 0 0 0 0 0 0 0 0.2 0"/>
<feBlend mode="normal" in2="BackgroundImageFix" result="effect1_dropShadow_237_191"/>
<feBlend mode="normal" in="SourceGraphic" in2="effect1_dropShadow_237_191" result="shape"/>
</filter>
<filter id="filter1_if_237_191" x="80" y="80" width="192" height="190" filterUnits="userSpaceOnUse" color-interpolation-filters="sRGB">
<feFlood flood-opacity="0" result="BackgroundImageFix"/>
<feBlend mode="normal" in="SourceGraphic" in2="BackgroundImageFix" result="shape"/>
<feColorMatrix in="SourceAlpha" type="matrix" values="0 0 0 0 0 0 0 0 0 0 0 0 0 0 0 0 0 0 127 0" result="hardAlpha"/>
<feOffset dx="20" dy="-4"/>
<feGaussianBlur stdDeviation="3"/>
<feComposite in2="hardAlpha" operator="arithmetic" k2="-1" k3="1"/>
<feColorMatrix type="matrix" values="0 0 0 0 0.9475 0 0 0 0 0.625 0 0 0 0 1 0 0 0 0.6 0"/>
<feBlend mode="normal" in2="shape" result="effect1_innerShadow_237_191"/>
<feGaussianBlur stdDeviation="1.5" result="effect2_foregroundBlur_237_191"/>
</filter>
<clipPath id="clip0_237_191">
<rect width="1080" height="2400" fill="white"/>
</clipPath>
<clipPath id="clip1_237_191">
<rect width="183" height="183" fill="white" transform="translate(83 84)"/>
</clipPath>
</defs>
</svg>
